<?xml version="1.0" encoding="UTF-8"?>
<svg viewBox="0 0 861 1827" xmlns="http://www.w3.org/2000/svg" aria-hidden="true">
    <g fill="#6037a8">
        <path d="M 420.32 61.15 C 423.42 55.20 425.37 48.69 428.87 42.94 C 433.79 53.09 437.59 63.81 443.50 73.47 C 447.40 79.77 451.27 86.20 456.54 91.48 C 469.98 105.68 487.66 114.63 505.07 122.96 C 498.63 126.39 491.78 128.95 485.36 132.41 C 470.08 140.68 456.57 152.36 446.87 166.85 C 438.65 177.98 435.18 191.61 428.90 203.75 C 427.58 202.39 426.38 200.90 425.67 199.13 C 421.65 189.82 417.26 180.65 412.00 171.97 C 399.36 151.44 379.90 135.47 357.74 126.16 C 355.91 125.01 353.00 124.71 352.03 122.71 C 358.06 119.34 364.68 117.15 370.62 113.59 C 392.23 102.04 410.03 83.41 420.32 61.15 Z" />
        <path d="M 235.49 633.76 C 245.26 632.42 255.13 632.92 264.95 632.84 C 375.65 632.81 486.34 632.84 597.04 632.84 C 632.80 632.98 667.32 649.56 692.24 674.76 C 716.50 699.39 732.13 733.16 732.28 768.00 C 732.33 1058.33 732.37 1348.66 732.27 1638.99 C 733.42 1677.71 716.61 1716.09 688.91 1742.90 C 662.79 1768.13 626.65 1783.83 590.03 1781.94 C 535.68 1782.30 481.33 1781.83 426.97 1782.10 C 368.32 1781.97 309.66 1782.14 251.01 1782.06 C 234.96 1782.02 218.95 1778.92 204.09 1772.85 C 171.36 1759.86 143.76 1734.32 128.46 1702.60 C 119.65 1683.37 113.65 1662.32 114.51 1641.02 C 114.43 1397.66 114.56 1154.30 114.45 910.94 C 114.53 862.29 114.37 813.65 114.53 765.01 C 116.41 729.44 132.86 695.14 158.66 670.70 C 179.62 650.83 206.91 637.80 235.49 633.76 M 246.33 674.39 C 218.79 676.28 192.61 691.02 175.72 712.71 C 163.46 728.83 155.50 748.65 155.32 769.05 C 155.36 1061.38 155.33 1353.70 155.34 1646.03 C 155.08 1657.53 158.11 1668.84 162.50 1679.39 C 175.18 1709.79 203.48 1733.29 235.91 1739.47 C 244.84 1741.28 253.97 1740.88 263.02 1740.92 C 374.35 1740.91 485.68 1741.00 597.01 1740.91 C 604.88 1740.73 612.72 1739.44 620.28 1737.22 C 658.81 1725.76 688.85 1689.27 691.34 1648.96 C 691.43 1357.66 691.30 1066.36 691.40 775.06 C 691.89 765.26 690.71 755.44 688.27 745.95 C 678.59 712.29 650.10 684.71 615.94 676.67 C 602.57 673.17 588.68 674.57 575.04 674.31 C 465.47 674.35 355.90 674.22 246.33 674.39 Z" />
    </g>
    <path fill="#6037a8" d="M 402.54 1305.79 C 425.17 1303.54 448.32 1304.51 470.29 1310.68 C 504.60 1319.50 535.49 1339.72 558.74 1366.26 C 569.62 1378.85 578.85 1392.82 586.29 1407.71 C 608.03 1452.13 609.65 1505.67 591.37 1551.55 C 579.18 1582.98 557.94 1610.71 531.15 1631.11 C 507.38 1649.18 479.13 1661.36 449.64 1666.05 C 436.22 1668.33 422.54 1667.98 408.99 1667.53 C 370.87 1664.69 333.80 1649.13 305.22 1623.71 C 278.63 1600.48 258.73 1569.52 249.37 1535.42 C 242.47 1512.05 240.72 1487.20 243.73 1463.05 C 249.41 1424.67 266.96 1387.92 294.02 1360.02 C 322.52 1330.16 361.63 1310.91 402.54 1305.79 M 405.52 1347.78 C 365.99 1352.89 328.77 1375.44 306.81 1408.85 C 297.35 1422.89 290.83 1438.78 286.76 1455.18 C 281.41 1477.42 281.92 1501.01 288.20 1523.00 C 293.40 1540.40 301.30 1557.14 312.53 1571.49 C 333.83 1600.58 367.45 1619.86 403.05 1624.83 C 442.97 1630.84 485.14 1618.12 515.15 1591.14 C 546.31 1563.85 564.53 1522.43 563.37 1481.00 C 562.78 1471.11 561.44 1461.24 559.06 1451.62 C 556.51 1442.13 552.74 1433.02 548.63 1424.12 C 533.18 1392.93 505.80 1367.79 473.14 1355.60 C 451.80 1347.14 428.22 1345.01 405.52 1347.78 Z" />
    <path fill="#eba239" d="M 425.06 250.00 C 426.20 248.50 427.50 247.15 428.79 245.78 C 465.36 296.12 499.90 347.89 535.10 399.19 C 551.33 388.27 567.96 377.98 584.40 367.38 C 616.22 346.83 648.25 326.61 680.07 306.07 C 704.07 290.69 728.13 275.40 752.43 260.50 C 754.30 259.35 756.26 258.19 758.53 258.19 C 750.26 297.37 742.49 336.66 734.34 375.87 C 720.39 444.35 705.85 512.73 692.31 581.30 C 582.21 581.10 472.10 581.27 362.00 581.20 C 294.17 581.27 226.35 581.11 158.52 581.28 C 150.05 539.86 141.84 498.38 133.65 456.91 C 123.78 406.63 114.42 356.25 104.30 306.03 C 101.97 293.33 98.63 280.82 96.91 268.02 C 96.16 264.49 95.28 260.97 95.47 257.33 C 100.10 258.59 103.70 261.84 107.72 264.28 C 148.43 289.74 189.10 315.29 229.02 341.99 C 258.11 360.94 286.99 380.23 316.10 399.17 C 339.99 366.96 363.32 334.34 386.94 301.93 C 399.43 284.46 411.97 267.02 425.06 250.00 Z" />
</svg>
